<?xml version="1.0" encoding="UTF-8"?>
<!DOCTYPE svg PUBLIC "-//W3C//DTD SVG 1.1//EN" "http://www.w3.org/Graphics/SVG/1.1/DTD/svg11.dtd">
<svg version="1.1" xmlns="http://www.w3.org/2000/svg" xmlns:xlink="http://www.w3.org/1999/xlink" x="0px" y="0px" width="24" height="144" viewBox="0, 0, 24, 144">
  <g id="Layer 1">
    <path d="M11.989,4 L11.989,6 L5,6 L5,19 L18.979,19 L18.979,6 L11.989,6 L11.989,4 L20.979,4 L20.979,21 L3,21 L3,4 z M7,7 L11.2,11.2 L7,15 L7,13 L9,11 L7,9 z" fill="#BBBBBB" fill-opacity="0.518"/>
    <path d="M11.989,28 L11.989,30 L5,30 L5,43 L18.979,43 L18.979,30 L11.989,30 L11.989,28 L20.979,28 L20.979,45 L3,45 L3,28 z M7,31 L11.2,35.2 L7,39 L7,37 L9,35 L7,33 z" fill="#C3BE00"/>
    <path d="M11.989,52 L11.989,54 L5,54 L5,67 L18.979,67 L18.979,54 L11.989,54 L11.989,52 L20.979,52 L20.979,69 L3,69 L3,52 z M7,55 L11.2,59.2 L7,63 L7,61 L9,59 L7,57 z" fill="#C2369C"/>
    <path d="M11.989,76 L11.989,78 L5,78 L5,91 L18.979,91 L18.979,78 L11.989,78 L11.989,76 L20.979,76 L20.979,93 L3,93 L3,76 z M7,79 L11.2,83.2 L7,87 L7,85 L9,83 L7,81 z" fill="#53BB00"/>
    <path d="M11.989,100 L11.989,102 L5,102 L5,115 L18.979,115 L18.979,102 L11.989,102 L11.989,100 L20.979,100 L20.979,117 L3,117 L3,100 z M7,103 L11.2,107.2 L7,111 L7,109 L9,107 L7,105 z" fill="#BBBBBB"/>
    <path d="M11.989,124 L11.989,126 L5,126 L5,139 L18.979,139 L18.979,126 L11.989,126 L11.989,124 L20.979,124 L20.979,141 L3,141 L3,124 z M7,127 L11.2,131.2 L7,135 L7,133 L9,131 L7,129 z" fill="#CA0003"/>
  </g>
  <defs/>
</svg>
